<svg xmlns="http://www.w3.org/2000/svg" width="1600" height="320" viewBox="0 0 1600 320">
  <defs>
    <linearGradient id="bg" x1="0" y1="0" x2="1" y2="0">
      <stop offset="0" stop-color="#eaf8df"/>
      <stop offset=".45" stop-color="#f7fff1"/>
      <stop offset="1" stop-color="#c9ecb2"/>
    </linearGradient>
    <linearGradient id="green" x1="0" y1="0" x2="1" y2="1">
      <stop offset="0" stop-color="#38b84b"/>
      <stop offset="1" stop-color="#128a2e"/>
    </linearGradient>
    <filter id="shadow" x="-20%" y="-20%" width="140%" height="140%">
      <feDropShadow dx="0" dy="10" stdDeviation="14" flood-color="#4c9b39" flood-opacity=".22"/>
    </filter>
  </defs>
  <rect width="1600" height="320" fill="url(#bg)"/>
  <path d="M760 38c90 33 124 120 96 199-50-60-54-139-96-199z" fill="#9bd678" opacity=".35"/>
  <path d="M1404 22c-44 60-40 120 6 172 38-62 33-120-6-172zM1330 86c-49 54-54 109-13 166 43-48 49-108 13-166z" fill="#91ce70" opacity=".45"/>
  <g transform="translate(790 126)" filter="url(#shadow)">
    <ellipse cx="145" cy="66" rx="145" ry="48" fill="#ac7544"/>
    <ellipse cx="145" cy="38" rx="132" ry="38" fill="#d6a874"/>
    <rect x="42" y="20" width="206" height="64" rx="13" fill="#dbf5c5"/>
    <rect x="30" y="64" width="230" height="52" rx="12" fill="#bfe69d"/>
    <rect x="54" y="105" width="184" height="42" rx="10" fill="#8bc96e"/>
  </g>
  <g transform="translate(1110 26)" filter="url(#shadow)">
    <path d="M80 20h125c34 0 60 26 60 60v172c0 28-22 50-50 50H58c-28 0-50-22-50-50V96c0-42 30-76 72-76z" fill="url(#green)"/>
    <rect x="94" y="0" width="86" height="42" rx="9" fill="#0d8a2e"/>
    <path d="M196 60h24c32 0 58 26 58 58v42h-36v-42c0-12-10-22-22-22h-24z" fill="#149936"/>
    <rect x="48" y="92" width="160" height="126" rx="20" fill="#efffe8"/>
    <text x="128" y="138" text-anchor="middle" font-family="Microsoft YaHei, PingFang SC, Arial" font-size="31" font-weight="900" fill="#169537">天然洗衣液</text>
    <text x="128" y="172" text-anchor="middle" font-family="Microsoft YaHei, PingFang SC, Arial" font-size="22" font-weight="700" fill="#2f9d45">温和配方</text>
    <text x="128" y="199" text-anchor="middle" font-family="Microsoft YaHei, PingFang SC, Arial" font-size="22" font-weight="700" fill="#2f9d45">洁净安心</text>
    <path d="M82 230c18-26 43-33 70-18-17 28-40 36-70 18z" fill="#31b548"/>
  </g>
  <g transform="translate(1370 80)" filter="url(#shadow)">
    <path d="M34 22h78c22 0 39 17 39 39v164c0 22-17 39-39 39H34c-22 0-39-17-39-39V61c0-22 17-39 39-39z" fill="#f6fff0"/>
    <rect x="45" y="0" width="56" height="32" rx="9" fill="#fff"/>
    <rect x="18" y="82" width="111" height="92" rx="17" fill="#e7f8dc"/>
    <text x="74" y="120" text-anchor="middle" font-family="Microsoft YaHei, PingFang SC, Arial" font-size="24" font-weight="900" fill="#169537">柔顺剂</text>
    <text x="74" y="151" text-anchor="middle" font-family="Microsoft YaHei, PingFang SC, Arial" font-size="18" fill="#2f9d45">清新护衣</text>
  </g>
  <g font-family="Microsoft YaHei, PingFang SC, Arial">
    <text x="70" y="92" font-size="58" font-weight="900" fill="#15913a">绿色洗护</text>
    <text x="286" y="92" font-size="58" font-weight="900" fill="#17212b">呵护健康</text>
    <rect x="70" y="114" width="486" height="50" rx="25" fill="#1c9639"/>
    <text x="100" y="150" font-size="29" font-weight="800" fill="#fff">天然配方 · 温和洁净 · 呵护全家</text>
  </g>
  <g transform="translate(70 205)" font-family="Microsoft YaHei, PingFang SC, Arial" font-size="24" fill="#264b35">
    <g><rect width="180" height="64" rx="16" fill="#fff" opacity=".86"/><path d="M28 50C44 29 63 23 83 25 69 41 50 50 28 50z" fill="none" stroke="#15913a" stroke-width="5"/><text x="70" y="27">天然洗剂</text><text x="70" y="53">温和护衣</text></g>
    <g transform="translate(205 0)"><rect width="180" height="64" rx="16" fill="#fff" opacity=".86"/><path d="M28 13l25 9v20c0 14-11 24-25 29C14 66 3 56 3 42V22z" fill="none" stroke="#15913a" stroke-width="5"/><text x="70" y="27">除菌除螨</text><text x="70" y="53">健康安心</text></g>
    <g transform="translate(410 0)"><rect width="180" height="64" rx="16" fill="#fff" opacity=".86"/><path d="M29 12c18 24 26 39 26 50-17 0-35-14-35-30 0-9 4-15 9-20z" fill="none" stroke="#15913a" stroke-width="5"/><text x="70" y="27">低泡易漂</text><text x="70" y="53">节水环保</text></g>
    <g transform="translate(615 0)"><rect width="180" height="64" rx="16" fill="#fff" opacity=".86"/><path d="M15 22l26-12 26 12-9 14-8-5v28H31V31l-8 5z" fill="none" stroke="#15913a" stroke-width="5"/><text x="78" y="27">柔顺护色</text><text x="78" y="53">亮丽如新</text></g>
  </g>
</svg>
